# Blender v2.83.1 OBJ File: ''
# www.blender.org
mtllib Spray.mtl
o sprayCan
v -0.000174 0.828218 0.047341
v 0.159307 0.697073 0.048308
v 0.129195 0.696785 -0.045511
v 0.049692 0.696578 -0.103710
v -0.048836 0.696538 -0.104072
v -0.128756 0.696668 -0.046431
v -0.159539 0.696931 0.047164
v -0.129429 0.697223 0.140969
v -0.049925 0.697429 0.199168
v 0.048604 0.697470 0.199530
v 0.128524 0.697336 0.141903
v -0.250510 -0.857613 -0.131489
v -0.310592 -0.857099 0.051190
v -0.361947 0.353812 0.047442
v -0.292053 0.353215 -0.165071
v -0.094525 -0.857873 -0.243970
v -0.110589 0.352913 -0.295929
v 0.097782 -0.857784 -0.243284
v 0.113128 0.353011 -0.295119
v 0.252956 -0.857383 -0.129689
v 0.293647 0.353479 -0.162973
v 0.311726 -0.856818 0.053418
v 0.362017 0.354141 0.050033
v -0.293577 0.354468 0.260461
v -0.251822 -0.856535 0.234296
v -0.113060 0.354937 0.392607
v -0.096648 -0.856133 0.347891
v 0.110659 0.355039 0.393404
v 0.095659 -0.856045 0.348577
v 0.292120 0.354732 0.262559
v 0.251644 -0.856305 0.236096
v -0.267659 0.595631 0.240978
v -0.329968 0.595031 0.046849
v -0.361983 0.435305 0.047197
v -0.293613 0.435960 0.260216
v -0.103140 0.596056 0.361414
v -0.113096 0.436430 0.392362
v 0.100746 0.596150 0.362140
v 0.110623 0.436527 0.393173
v 0.266126 0.595872 0.242889
v 0.292084 0.436225 0.262314
v 0.329825 0.595331 0.049207
v 0.361981 0.435628 0.049802
v 0.267516 0.594729 -0.144922
v 0.293612 0.434972 -0.163218
v 0.102997 0.594305 -0.265359
v 0.113093 0.434504 -0.295364
v -0.100889 0.594210 -0.266085
v -0.110626 0.434400 -0.296160
v -0.266269 0.594489 -0.146834
v -0.292088 0.434708 -0.165316
v 0.181056 0.770666 0.048167
v 0.194463 0.770715 0.189977
v 0.241032 0.770316 0.048383
v 0.146068 0.770962 0.154552
v 0.073558 0.770918 0.277160
v 0.055229 0.771115 0.220051
v -0.075499 0.770850 0.276624
v -0.056762 0.771064 0.219653
v -0.195777 0.770537 0.188580
v -0.147129 0.770830 0.153500
v -0.241330 0.770102 0.046646
v -0.181354 0.770500 0.046871
v -0.194759 0.769705 -0.094948
v -0.146366 0.770202 -0.059515
v -0.073855 0.769502 -0.182131
v -0.055526 0.770053 -0.125028
v 0.075204 0.769567 -0.181595
v 0.056465 0.770099 -0.124616
v 0.195481 0.769880 -0.093551
v 0.146830 0.770335 -0.058462
v 0.241059 0.710212 0.048562
v 0.194488 0.710609 0.190156
v 0.073583 0.710813 0.277339
v -0.075473 0.710744 0.276803
v -0.195750 0.710432 0.188759
v -0.241303 0.709997 0.046826
v -0.194732 0.709600 -0.094769
v -0.073828 0.709396 -0.181952
v 0.075231 0.709462 -0.181416
v 0.195506 0.709776 -0.093371
v 0.364345 -0.863647 0.053637
v 0.295636 -0.864302 -0.160443
v 0.114223 -0.864776 -0.293237
v -0.110601 -0.864878 -0.294047
v -0.292964 -0.864573 -0.162545
v -0.363205 -0.863973 0.051023
v -0.294497 -0.863309 0.265089
v -0.113083 -0.862842 0.397897
v 0.111742 -0.862736 0.398692
v 0.294103 -0.863047 0.267205
v 0.343264 0.427451 -0.198990
v 0.132219 0.426909 -0.353489
v 0.423193 0.428220 0.050045
v 0.341479 0.428917 0.298496
v 0.129330 0.429275 0.451469
v -0.132216 0.429159 0.450525
v -0.343259 0.428611 0.296039
v -0.423190 0.427843 0.047004
v -0.341477 0.427146 -0.201447
v -0.129328 0.426788 -0.354419
v 0.092867 1.011588 0.018091
v 0.076555 0.783113 -0.053171
v 0.057481 0.993528 -0.028883
v 0.123587 0.783315 0.009322
v 0.092692 1.011757 0.076088
v 0.123353 0.783541 0.086387
v 0.075944 0.783703 0.148587
v -0.000528 0.985018 0.140723
v -0.000532 0.783738 0.172174
v 0.057022 0.993973 0.122948
v -0.057974 0.993924 0.122593
v -0.076864 0.783637 0.148117
v -0.093377 1.011677 0.075517
v -0.123895 0.783429 0.085639
v -0.093201 1.011508 0.017521
v -0.123661 0.783203 0.008574
v -0.057515 0.993479 -0.029238
v -0.076253 0.783041 -0.053627
v 0.000041 0.984466 -0.046946
v 0.000223 0.783008 -0.077212
v 0.364372 -0.925064 0.053806
v 0.294130 -0.924471 0.267387
v 0.111768 -0.924160 0.398875
v -0.113057 -0.924265 0.398080
v -0.294470 -0.924735 0.265271
v -0.363178 -0.925396 0.051206
v -0.292937 -0.925996 -0.162362
v -0.110574 -0.926301 -0.293864
v 0.114250 -0.926201 -0.293055
v 0.295663 -0.925726 -0.160260
v 0.343292 0.360831 -0.198795
v 0.423223 0.361598 0.050240
v 0.341508 0.362296 0.298691
v 0.129359 0.362654 0.451663
v -0.132187 0.362532 0.450733
v -0.343230 0.361988 0.296233
v -0.423161 0.361220 0.047198
v -0.341447 0.360523 -0.201253
v -0.129298 0.360165 -0.354225
v 0.132248 0.360286 -0.353295
v 0.000599 -0.932063 0.052531
vt 0.792698 0.301692
vt 0.792705 0.289361
vt 0.792705 0.289361
vt 0.792705 0.289361
vt 0.792705 0.289361
vt 0.792705 0.289361
vt 0.792705 0.289361
vt 0.792705 0.289361
vt 0.792705 0.289361
vt 0.792705 0.289361
vt 0.792705 0.289361
vt 0.818791 0.328175
vt 0.818791 0.328995
vt 0.842332 0.328997
vt 0.842331 0.328175
vt 0.818792 0.327431
vt 0.842331 0.327431
vt 0.818791 0.327001
vt 0.842331 0.327001
vt 0.818792 0.326667
vt 0.842331 0.326667
vt 0.818791 0.326643
vt 0.842331 0.326643
vt 0.842331 0.328175
vt 0.818791 0.328175
vt 0.842331 0.327431
vt 0.818792 0.327431
vt 0.842331 0.327001
vt 0.818791 0.327001
vt 0.842331 0.326667
vt 0.818792 0.326667
vt 0.789431 0.292659
vt 0.789431 0.299720
vt 0.794022 0.299720
vt 0.794022 0.292659
vt 0.789431 0.284652
vt 0.794022 0.284652
vt 0.789431 0.276084
vt 0.794022 0.276084
vt 0.789431 0.267521
vt 0.794022 0.267521
vt 0.789431 0.259462
vt 0.794022 0.259462
vt 0.789431 0.267521
vt 0.794022 0.267521
vt 0.789431 0.276084
vt 0.794022 0.276084
vt 0.789431 0.284652
vt 0.794022 0.284652
vt 0.789431 0.292659
vt 0.794022 0.292659
vt 0.794521 0.304725
vt 0.789603 0.303077
vt 0.794521 0.303076
vt 0.789603 0.304725
vt 0.794521 0.304725
vt 0.789603 0.303077
vt 0.794521 0.303076
vt 0.789603 0.304725
vt 0.794521 0.304725
vt 0.789603 0.303077
vt 0.794521 0.303076
vt 0.789603 0.304725
vt 0.794521 0.304725
vt 0.789603 0.303077
vt 0.794521 0.303076
vt 0.789603 0.304725
vt 0.794521 0.304725
vt 0.789603 0.303077
vt 0.794521 0.303076
vt 0.789603 0.304725
vt 0.794521 0.304725
vt 0.789603 0.303077
vt 0.794521 0.303076
vt 0.789603 0.304725
vt 0.794521 0.304725
vt 0.789603 0.303077
vt 0.794521 0.303076
vt 0.789603 0.304725
vt 0.794521 0.304725
vt 0.789603 0.303077
vt 0.794521 0.303076
vt 0.789603 0.304725
vt 0.794521 0.304725
vt 0.789603 0.303077
vt 0.794521 0.303076
vt 0.789603 0.304725
vt 0.794521 0.304725
vt 0.789603 0.303077
vt 0.794521 0.303076
vt 0.789603 0.304725
vt 0.784831 0.259462
vt 0.784831 0.267521
vt 0.784831 0.276084
vt 0.784831 0.284652
vt 0.784831 0.292659
vt 0.784831 0.299720
vt 0.784831 0.292659
vt 0.784831 0.284652
vt 0.784831 0.276084
vt 0.784831 0.267521
vt 0.794521 0.304725
vt 0.789604 0.303077
vt 0.794521 0.303077
vt 0.789604 0.304725
vt 0.794521 0.304725
vt 0.789604 0.303077
vt 0.794521 0.303077
vt 0.789604 0.304725
vt 0.794521 0.304725
vt 0.789604 0.303077
vt 0.794521 0.303077
vt 0.789604 0.304725
vt 0.794521 0.304725
vt 0.789604 0.303077
vt 0.794521 0.303077
vt 0.789604 0.304725
vt 0.794521 0.304725
vt 0.789604 0.303077
vt 0.794521 0.303077
vt 0.789604 0.304725
vt 0.794521 0.304725
vt 0.789604 0.303077
vt 0.794521 0.303077
vt 0.789604 0.304725
vt 0.794521 0.304725
vt 0.789604 0.303077
vt 0.794521 0.303077
vt 0.789604 0.304725
vt 0.794521 0.304725
vt 0.789604 0.303077
vt 0.794521 0.303077
vt 0.789604 0.304725
vt 0.794521 0.304725
vt 0.789604 0.303077
vt 0.794521 0.303077
vt 0.789604 0.304725
vt 0.794521 0.304725
vt 0.789604 0.303077
vt 0.794521 0.303077
vt 0.789604 0.304725
vt 0.794521 0.304725
vt 0.789604 0.303077
vt 0.794521 0.303077
vt 0.789604 0.304725
vt 0.794521 0.304725
vt 0.789604 0.303077
vt 0.794521 0.303077
vt 0.789604 0.304725
vt 0.794521 0.304725
vt 0.789604 0.303077
vt 0.794521 0.303077
vt 0.789604 0.304725
vt 0.794521 0.304725
vt 0.789604 0.303077
vt 0.794521 0.303077
vt 0.789604 0.304725
vt 0.794521 0.304725
vt 0.789604 0.303077
vt 0.794521 0.303077
vt 0.789604 0.304725
vt 0.794521 0.304725
vt 0.789604 0.303077
vt 0.794521 0.303077
vt 0.789604 0.304725
vt 0.794521 0.304725
vt 0.789604 0.303077
vt 0.794521 0.303077
vt 0.789604 0.304725
vt 0.794521 0.304725
vt 0.789604 0.303077
vt 0.794521 0.303077
vt 0.789604 0.304725
vt 0.794521 0.304725
vt 0.789604 0.303077
vt 0.794521 0.303077
vt 0.789604 0.304725
vt 0.794521 0.304725
vt 0.789604 0.303077
vt 0.794521 0.303077
vt 0.789604 0.304725
vt 0.797837 0.300996
vt 0.800144 0.298862
vt 0.797837 0.298862
vt 0.800144 0.300996
vt 0.797837 0.290373
vt 0.800144 0.288545
vt 0.797837 0.288545
vt 0.800144 0.290373
vt 0.797837 0.300996
vt 0.800144 0.298862
vt 0.797837 0.298862
vt 0.800144 0.300996
vt 0.797837 0.290373
vt 0.800144 0.288545
vt 0.797837 0.288545
vt 0.800144 0.290373
vt 0.797837 0.300996
vt 0.800144 0.298862
vt 0.797837 0.298862
vt 0.800144 0.300996
vt 0.797837 0.290373
vt 0.800144 0.288545
vt 0.797837 0.288545
vt 0.800144 0.290373
vt 0.797837 0.300996
vt 0.800144 0.298862
vt 0.797837 0.298862
vt 0.800144 0.300996
vt 0.797837 0.290373
vt 0.800144 0.288545
vt 0.797837 0.288545
vt 0.800144 0.290373
vt 0.797837 0.300996
vt 0.800144 0.298862
vt 0.797837 0.298862
vt 0.800144 0.300996
vt 0.797837 0.290373
vt 0.800144 0.288545
vt 0.797837 0.288545
vt 0.800144 0.290373
vt 0.797837 0.300996
vt 0.800144 0.298862
vt 0.797837 0.298862
vt 0.800144 0.300996
vt 0.797837 0.290373
vt 0.800144 0.288545
vt 0.797837 0.288545
vt 0.800144 0.290373
vt 0.797837 0.300996
vt 0.800144 0.298862
vt 0.797837 0.298862
vt 0.800144 0.300996
vt 0.797837 0.290373
vt 0.800144 0.288545
vt 0.797837 0.288545
vt 0.800144 0.290373
vt 0.797837 0.300996
vt 0.800144 0.298862
vt 0.797837 0.298862
vt 0.800144 0.300996
vt 0.797837 0.290373
vt 0.800144 0.288545
vt 0.797837 0.288545
vt 0.800144 0.290373
vt 0.797837 0.300996
vt 0.800144 0.298862
vt 0.797837 0.298862
vt 0.800144 0.300996
vt 0.797837 0.290373
vt 0.800144 0.288545
vt 0.797837 0.288545
vt 0.800144 0.290373
vt 0.797837 0.300996
vt 0.800144 0.298862
vt 0.797837 0.298862
vt 0.800144 0.300996
vt 0.797837 0.290373
vt 0.800144 0.288545
vt 0.797837 0.288545
vt 0.800144 0.290373
vt 0.803104 0.362714
vt 0.797145 0.335340
vt 0.797145 0.362714
vt 0.803104 0.335340
vt 0.803104 0.362714
vt 0.797145 0.335340
vt 0.797145 0.362714
vt 0.803104 0.335340
vt 0.803104 0.335340
vt 0.811000 0.362714
vt 0.811000 0.335340
vt 0.803104 0.362714
vt 0.797145 0.335340
vt 0.797145 0.362714
vt 0.803101 0.362714
vt 0.803101 0.335340
vt 0.803104 0.362714
vt 0.797145 0.335340
vt 0.797145 0.362714
vt 0.803104 0.335340
vt 0.803104 0.362714
vt 0.797145 0.335340
vt 0.797145 0.362714
vt 0.803104 0.335340
vt 0.803104 0.362714
vt 0.797145 0.335340
vt 0.797145 0.362714
vt 0.803104 0.335340
vt 0.803104 0.362714
vt 0.797145 0.335340
vt 0.797145 0.362714
vt 0.803104 0.335340
vt 0.803104 0.362714
vt 0.797145 0.335340
vt 0.797145 0.362714
vt 0.803104 0.335340
vt 0.766144 0.371276
vt 0.765245 0.370090
vt 0.765245 0.368623
vt 0.766144 0.367436
vt 0.767598 0.371730
vt 0.767598 0.366982
vt 0.769053 0.371276
vt 0.769053 0.367436
vt 0.769952 0.370090
vt 0.769952 0.368623
vt 0.809189 0.315976
vt 0.809189 0.292681
vt 0.809580 0.315976
vt 0.809580 0.292682
vt 0.809580 0.315976
vt 0.809580 0.292682
vt 0.809580 0.315976
vt 0.809580 0.292682
vt 0.809580 0.315976
vt 0.809580 0.292682
vt 0.809580 0.315976
vt 0.809580 0.292682
vt 0.809580 0.315976
vt 0.809580 0.292682
vt 0.809580 0.315976
vt 0.809580 0.292682
vt 0.809580 0.315976
vt 0.809580 0.292682
vt 0.809580 0.315976
vt 0.809580 0.292682
vt 0.809189 0.315976
vt 0.809189 0.292681
vt 0.809580 0.315976
vt 0.809189 0.292681
vt 0.809189 0.315976
vt 0.809189 0.292681
vt 0.809189 0.315976
vt 0.809189 0.292681
vt 0.809189 0.315976
vt 0.809189 0.292681
vt 0.809189 0.315976
vt 0.809189 0.292681
vt 0.809189 0.315976
vt 0.809189 0.292681
vt 0.809189 0.315976
vt 0.809189 0.292681
vt 0.809189 0.315976
vt 0.809189 0.292681
vt 0.809189 0.315976
vt 0.809580 0.292682
vt 0.794495 0.298015
vt 0.794495 0.289399
vt 0.794495 0.289399
vt 0.794495 0.289399
vt 0.794495 0.289399
vt 0.794495 0.289399
vt 0.794495 0.289399
vt 0.794495 0.289399
vt 0.794495 0.289399
vt 0.794495 0.289399
vt 0.794495 0.289399
vt 0.795479 0.286606
vt 0.795224 0.286606
vt 0.795479 0.286981
vt 0.795224 0.286606
vt 0.795479 0.286606
vt 0.795224 0.286606
vt 0.795479 0.286606
vt 0.795224 0.286606
vt 0.795479 0.286606
vt 0.795224 0.286606
vt 0.795479 0.286606
vt 0.795224 0.286606
vt 0.795479 0.286606
vt 0.795224 0.286606
vt 0.795479 0.286606
vt 0.795224 0.286606
vt 0.795479 0.286606
vt 0.795224 0.286606
vt 0.795479 0.286606
vt 0.795224 0.286981
vn 0.2871 0.9579 -0.0018
vn -0.4717 0.8691 -0.1491
vn -0.4509 0.8273 0.3351
vn -0.1664 0.8280 0.5354
vn 0.1814 0.8281 0.5304
vn 0.4598 0.8277 0.3217
vn 0.5625 0.8267 -0.0107
vn 0.4501 0.8258 -0.3399
vn 0.1657 0.8250 -0.5402
vn -0.1822 0.8248 -0.5352
vn -0.4606 0.8253 -0.3266
vn -0.5856 0.7240 -0.3645
vn -0.5989 0.8008 -0.0045
vn -0.5699 -0.8214 -0.0238
vn -0.5142 -0.7785 -0.3599
vn -0.2608 0.7233 -0.6393
vn -0.2031 -0.7790 -0.5932
vn 0.1635 0.7234 -0.6708
vn 0.1859 -0.7789 -0.5990
vn 0.5252 0.7243 -0.4468
vn 0.5038 -0.7781 -0.3752
vn 0.6698 0.7320 -0.1245
vn 0.5688 -0.8224 0.0044
vn -0.5467 -0.7617 0.3477
vn -0.5324 0.7557 0.3814
vn -0.2392 -0.7609 0.6032
vn -0.2053 0.7566 0.6209
vn 0.1599 -0.7606 0.6292
vn 0.2001 0.7568 0.6223
vn 0.4979 -0.7610 0.4159
vn 0.5290 0.7562 0.3852
vn -0.7432 0.4178 0.5226
vn -0.9955 0.0944 -0.0039
vn -0.5289 0.8431 0.0973
vn -0.4543 0.8295 0.3249
vn -0.2934 0.4190 0.8593
vn -0.1752 0.8302 0.5292
vn 0.2684 0.4192 0.8673
vn 0.1706 0.8305 0.5303
vn 0.7276 0.4185 0.5435
vn 0.4512 0.8299 0.3281
vn 0.8546 0.4170 0.3094
vn 0.4914 0.8710 -0.0008
vn 0.7428 0.4155 -0.5250
vn 0.4536 0.8280 -0.3298
vn 0.2931 0.4143 -0.8617
vn 0.1745 0.8273 -0.5340
vn -0.2687 0.4139 -0.8697
vn -0.1714 0.8271 -0.5353
vn -0.7280 0.4147 -0.5460
vn -0.4519 0.8276 -0.3330
vn -0.4912 0.8584 0.1480
vn 0.6950 0.6607 0.2835
vn 0.6352 0.7723 0.0000
vn -0.2986 0.9284 -0.2210
vn 0.3945 0.6617 0.6377
vn -0.1134 0.9281 -0.3546
vn -0.0569 0.6618 0.7475
vn 0.1151 0.9282 -0.3538
vn -0.4866 0.6611 0.5711
vn 0.2993 0.9287 -0.2189
vn -0.7306 0.6598 0.1758
vn 0.3692 0.9293 -0.0015
vn -0.6956 0.6585 -0.2874
vn 0.2979 0.9299 0.2156
vn -0.3950 0.6575 -0.6416
vn 0.1125 0.9303 0.3491
vn 0.0564 0.6574 -0.7514
vn -0.1159 0.9302 0.3484
vn 0.4860 0.6581 -0.5750
vn -0.3002 0.9297 0.2134
vn 0.9244 0.1081 0.3657
vn 0.8067 -0.0236 0.5906
vn 0.3055 -0.0227 0.9519
vn -0.3123 -0.0230 0.9497
vn -0.8108 -0.0243 0.5848
vn -0.9963 -0.0863 -0.0033
vn -0.8066 -0.0279 -0.5904
vn -0.3055 -0.0287 -0.9518
vn 0.3123 -0.0284 -0.9495
vn 0.8109 -0.0272 -0.5846
vn 0.7770 0.6247 -0.0777
vn 0.6040 0.6661 -0.4377
vn 0.2324 0.6651 -0.7096
vn -0.2280 0.6649 -0.7113
vn -0.6014 0.6656 -0.4420
vn -0.7452 0.6668 -0.0046
vn -0.6045 0.6681 0.4337
vn -0.2330 0.6691 0.7057
vn 0.2274 0.6693 0.7073
vn 0.6008 0.6687 0.4380
vn 0.5834 0.6256 -0.5179
vn 0.2320 0.6667 -0.7083
vn 0.7753 0.6270 -0.0762
vn 0.6709 0.6284 0.3938
vn 0.3101 0.6292 0.7127
vn -0.1692 0.6291 0.7586
vn -0.5840 0.6282 0.5142
vn -0.7758 0.6268 0.0725
vn -0.6714 0.6255 -0.3975
vn -0.3107 0.6247 -0.7164
vn 0.5834 0.6830 -0.4396
vn 0.5206 -0.1550 -0.8396
vn 0.4124 0.7691 -0.4883
vn 0.9158 -0.1719 -0.3630
vn 0.7326 0.6428 0.2238
vn 0.9486 -0.1669 0.2690
vn 0.4705 0.1505 0.8695
vn -0.0004 0.5107 0.8597
vn 0.0536 -0.1350 0.9894
vn 0.1903 0.7633 0.6174
vn -0.2842 0.5876 0.7576
vn -0.5205 -0.1503 0.8405
vn -0.5839 0.6851 0.4355
vn -0.9156 -0.1708 0.3640
vn -0.7330 0.6410 -0.2276
vn -0.9484 -0.1694 -0.2680
vn -0.5026 0.7251 -0.4708
vn -0.6076 -0.1497 -0.7800
vn -0.0881 0.5210 -0.8490
vn -0.0535 -0.1408 -0.9886
vn 0.7694 -0.6351 -0.0692
vn 0.6551 -0.6461 0.3917
vn 0.3010 -0.6453 0.7021
vn -0.1680 -0.6454 0.7451
vn -0.5727 -0.6463 0.5042
vn -0.7586 -0.6477 0.0715
vn -0.6546 -0.6490 -0.3878
vn -0.3004 -0.6497 -0.6983
vn 0.1686 -0.6497 -0.7413
vn 0.5733 -0.6488 -0.5004
vn 0.6051 -0.6034 -0.5194
vn 0.7871 -0.6135 -0.0630
vn 0.6750 -0.6122 0.4119
vn 0.3052 -0.6114 0.7301
vn -0.1812 -0.6114 0.7703
vn -0.5983 -0.6124 0.5167
vn -0.7866 -0.6138 0.0666
vn -0.6744 -0.6152 -0.4083
vn -0.3046 -0.6160 -0.7265
vn 0.1817 -0.6158 -0.7666
vn 0.0004 -1.0000 0.0029
usemtl main
s 1
f 1/1/1 2/2/2 3/3/3
f 1/1/1 3/3/3 4/4/4
f 1/1/1 4/4/4 5/5/5
f 1/1/1 5/5/5 6/6/6
f 1/1/1 6/6/6 7/7/7
f 1/1/1 7/7/7 8/8/8
f 1/1/1 8/8/8 9/9/9
f 1/1/1 9/9/9 10/10/10
f 1/1/1 10/10/10 11/11/11
f 1/1/1 11/11/11 2/2/2
f 12/12/12 13/13/13 14/14/14
f 15/15/15 12/12/12 14/14/14
f 16/16/16 12/12/12 15/15/15
f 17/17/17 16/16/16 15/15/15
f 18/18/18 16/16/16 17/17/17
f 19/19/19 18/18/18 17/17/17
f 20/20/20 18/18/18 19/19/19
f 21/21/21 20/20/20 19/19/19
f 22/22/22 20/20/20 21/21/21
f 23/23/23 22/22/22 21/21/21
f 24/24/24 14/14/14 13/13/13
f 25/25/25 24/24/24 13/13/13
f 26/26/26 24/24/24 25/25/25
f 27/27/27 26/26/26 25/25/25
f 28/28/28 26/26/26 27/27/27
f 29/29/29 28/28/28 27/27/27
f 30/30/30 28/28/28 29/29/29
f 31/31/31 30/30/30 29/29/29
f 23/23/23 30/30/30 31/31/31
f 22/22/22 23/23/23 31/31/31
f 32/32/32 33/33/33 34/34/34
f 35/35/35 32/32/32 34/34/34
f 36/36/36 32/32/32 35/35/35
f 37/37/37 36/36/36 35/35/35
f 38/38/38 36/36/36 37/37/37
f 39/39/39 38/38/38 37/37/37
f 40/40/40 38/38/38 39/39/39
f 41/41/41 40/40/40 39/39/39
f 42/42/42 40/40/40 41/41/41
f 43/43/43 42/42/42 41/41/41
f 44/44/44 42/42/42 43/43/43
f 45/45/45 44/44/44 43/43/43
f 46/46/46 44/44/44 45/45/45
f 47/47/47 46/46/46 45/45/45
f 48/48/48 46/46/46 47/47/47
f 49/49/49 48/48/48 47/47/47
f 50/50/50 48/48/48 49/49/49
f 51/51/51 50/50/50 49/49/49
f 33/33/33 50/50/50 51/51/51
f 34/34/34 33/33/33 51/51/51
f 52/52/52 53/53/53 54/54/54
f 55/55/55 53/53/53 52/52/52
f 55/56/55 56/57/56 53/58/53
f 57/59/57 56/57/56 55/56/55
f 57/60/57 58/61/58 56/62/56
f 59/63/59 58/61/58 57/60/57
f 59/64/59 60/65/60 58/66/58
f 61/67/61 60/65/60 59/64/59
f 61/68/61 62/69/62 60/70/60
f 63/71/63 62/69/62 61/68/61
f 63/72/63 64/73/64 62/74/62
f 65/75/65 64/73/64 63/72/63
f 65/76/65 66/77/66 64/78/64
f 67/79/67 66/77/66 65/76/65
f 67/80/67 68/81/68 66/82/66
f 69/83/69 68/81/68 67/80/67
f 69/84/69 70/85/70 68/86/68
f 71/87/71 70/85/70 69/84/69
f 71/88/71 54/89/54 70/90/70
f 52/91/52 54/89/54 71/88/71
f 40/40/40 42/42/42 72/92/72
f 73/93/73 40/40/40 72/92/72
f 38/38/38 40/40/40 73/93/73
f 74/94/74 38/38/38 73/93/73
f 36/36/36 38/38/38 74/94/74
f 75/95/75 36/36/36 74/94/74
f 32/32/32 36/36/36 75/95/75
f 76/96/76 32/32/32 75/95/75
f 33/33/33 32/32/32 76/96/76
f 77/97/77 33/33/33 76/96/76
f 50/50/50 33/33/33 77/97/77
f 78/98/78 50/50/50 77/97/77
f 48/48/48 50/50/50 78/98/78
f 79/99/79 48/48/48 78/98/78
f 46/46/46 48/48/48 79/99/79
f 80/100/80 46/46/46 79/99/79
f 44/44/44 46/46/46 80/100/80
f 81/101/81 44/44/44 80/100/80
f 42/42/42 44/44/44 81/101/81
f 72/92/72 42/42/42 81/101/81
f 82/102/82 20/103/20 22/104/22
f 83/105/83 20/103/20 82/102/82
f 83/106/83 18/107/18 20/108/20
f 84/109/84 18/107/18 83/106/83
f 84/110/84 16/111/16 18/112/18
f 85/113/85 16/111/16 84/110/84
f 85/114/85 12/115/12 16/116/16
f 86/117/86 12/115/12 85/114/85
f 86/118/86 13/119/13 12/120/12
f 87/121/87 13/119/13 86/118/86
f 87/122/87 25/123/25 13/124/13
f 88/125/88 25/123/25 87/122/87
f 88/126/88 27/127/27 25/128/25
f 89/129/89 27/127/27 88/126/88
f 89/130/89 29/131/29 27/132/27
f 90/133/90 29/131/29 89/130/89
f 90/134/90 31/135/31 29/136/29
f 91/137/91 31/135/31 90/134/90
f 91/138/91 22/139/22 31/140/31
f 82/141/82 22/139/22 91/138/91
f 92/142/92 47/143/47 45/144/45
f 93/145/93 47/143/47 92/142/92
f 94/146/94 45/147/45 43/148/43
f 92/149/92 45/147/45 94/146/94
f 95/150/95 43/151/43 41/152/41
f 94/153/94 43/151/43 95/150/95
f 96/154/96 41/155/41 39/156/39
f 95/157/95 41/155/41 96/154/96
f 97/158/97 39/159/39 37/160/37
f 96/161/96 39/159/39 97/158/97
f 98/162/98 37/163/37 35/164/35
f 97/165/97 37/163/37 98/162/98
f 99/166/99 35/167/35 34/168/34
f 98/169/98 35/167/35 99/166/99
f 100/170/100 34/171/34 51/172/51
f 99/173/99 34/171/34 100/170/100
f 101/174/101 51/175/51 49/176/49
f 100/177/100 51/175/51 101/174/101
f 93/178/93 49/179/49 47/180/47
f 101/181/101 49/179/49 93/178/93
f 54/182/54 73/183/73 72/184/72
f 53/185/53 73/183/73 54/182/54
f 55/186/55 2/187/2 11/188/11
f 52/189/52 2/187/2 55/186/55
f 53/190/53 74/191/74 73/192/73
f 56/193/56 74/191/74 53/190/53
f 57/194/57 11/195/11 10/196/10
f 55/197/55 11/195/11 57/194/57
f 56/198/56 75/199/75 74/200/74
f 58/201/58 75/199/75 56/198/56
f 59/202/59 10/203/10 9/204/9
f 57/205/57 10/203/10 59/202/59
f 58/206/58 76/207/76 75/208/75
f 60/209/60 76/207/76 58/206/58
f 61/210/61 9/211/9 8/212/8
f 59/213/59 9/211/9 61/210/61
f 60/214/60 77/215/77 76/216/76
f 62/217/62 77/215/77 60/214/60
f 63/218/63 8/219/8 7/220/7
f 61/221/61 8/219/8 63/218/63
f 62/222/62 78/223/78 77/224/77
f 64/225/64 78/223/78 62/222/62
f 65/226/65 7/227/7 6/228/6
f 63/229/63 7/227/7 65/226/65
f 64/230/64 79/231/79 78/232/78
f 66/233/66 79/231/79 64/230/64
f 67/234/67 6/235/6 5/236/5
f 65/237/65 6/235/6 67/234/67
f 66/238/66 80/239/80 79/240/79
f 68/241/68 80/239/80 66/238/66
f 69/242/69 5/243/5 4/244/4
f 67/245/67 5/243/5 69/242/69
f 68/246/68 81/247/81 80/248/80
f 70/249/70 81/247/81 68/246/68
f 71/250/71 4/251/4 3/252/3
f 69/253/69 4/251/4 71/250/71
f 70/254/70 72/255/72 81/256/81
f 54/257/54 72/255/72 70/254/70
f 52/258/52 3/259/3 2/260/2
f 71/261/71 3/259/3 52/258/52
f 102/262/102 103/263/103 104/264/104
f 105/265/105 103/263/103 102/262/102
f 106/266/106 105/267/105 102/268/102
f 107/269/107 105/267/105 106/266/106
f 108/270/108 109/271/109 110/272/110
f 111/273/111 109/271/109 108/270/108
f 107/274/107 111/273/111 108/270/108
f 106/275/106 111/273/111 107/274/107
f 112/276/112 110/272/110 109/271/109
f 113/277/113 110/272/110 112/276/112
f 114/278/114 113/279/113 112/280/112
f 115/281/115 113/279/113 114/278/114
f 116/282/116 115/283/115 114/284/114
f 117/285/117 115/283/115 116/282/116
f 118/286/118 117/287/117 116/288/116
f 119/289/119 117/287/117 118/286/118
f 120/290/120 119/291/119 118/292/118
f 121/293/121 119/291/119 120/290/120
f 104/294/104 121/295/121 120/296/120
f 103/297/103 121/295/121 104/294/104
f 111/298/111 106/299/106 102/300/102
f 104/301/104 111/298/111 102/300/102
f 109/302/109 111/298/111 104/301/104
f 120/303/120 109/302/109 104/301/104
f 112/304/112 109/302/109 120/303/120
f 118/305/118 112/304/112 120/303/120
f 114/306/114 112/304/112 118/305/118
f 116/307/116 114/306/114 118/305/118
f 82/308/82 122/309/122 83/310/83
f 123/311/123 122/309/122 82/308/82
f 91/312/91 123/311/123 82/308/82
f 124/313/124 123/311/123 91/312/91
f 90/314/90 124/313/124 91/312/91
f 125/315/125 124/313/124 90/314/90
f 89/316/89 125/315/125 90/314/90
f 126/317/126 125/315/125 89/316/89
f 88/318/88 126/317/126 89/316/89
f 127/319/127 126/317/126 88/318/88
f 87/320/87 127/319/127 88/318/88
f 128/321/128 127/319/127 87/320/87
f 86/322/86 128/321/128 87/320/87
f 129/323/129 128/321/128 86/322/86
f 85/324/85 129/323/129 86/322/86
f 130/325/130 129/323/129 85/324/85
f 84/326/84 130/325/130 85/324/85
f 131/327/131 130/325/130 84/326/84
f 83/310/83 131/327/131 84/326/84
f 122/309/122 131/327/131 83/310/83
f 92/328/92 132/329/132 93/330/93
f 133/331/133 132/329/132 92/328/92
f 94/332/94 133/331/133 92/328/92
f 134/333/134 133/331/133 94/332/94
f 95/334/95 134/333/134 94/332/94
f 135/335/135 134/333/134 95/334/95
f 96/336/96 135/335/135 95/334/95
f 136/337/136 135/335/135 96/336/96
f 97/338/97 136/337/136 96/336/96
f 137/339/137 136/337/136 97/338/97
f 98/340/98 137/339/137 97/338/97
f 138/341/138 137/339/137 98/340/98
f 99/342/99 138/341/138 98/340/98
f 139/343/139 138/341/138 99/342/99
f 100/344/100 139/343/139 99/342/99
f 140/345/140 139/343/139 100/344/100
f 101/346/101 140/345/140 100/344/100
f 141/347/141 140/345/140 101/346/101
f 93/330/93 141/347/141 101/346/101
f 132/329/132 141/347/141 93/330/93
f 142/348/142 123/349/123 124/350/124
f 122/351/122 123/349/123 142/348/142
f 131/352/131 122/351/122 142/348/142
f 142/348/142 130/353/130 131/352/131
f 129/354/129 130/353/130 142/348/142
f 128/355/128 129/354/129 142/348/142
f 142/348/142 127/356/127 128/355/128
f 126/357/126 127/356/127 142/348/142
f 125/358/125 126/357/126 142/348/142
f 125/358/125 142/348/142 124/350/124
f 132/359/132 21/360/21 141/361/141
f 23/362/23 21/360/21 132/359/132
f 133/363/133 23/362/23 132/359/132
f 30/364/30 23/362/23 133/363/133
f 134/365/134 30/364/30 133/363/133
f 28/366/28 30/364/30 134/365/134
f 135/367/135 28/366/28 134/365/134
f 26/368/26 28/366/28 135/367/135
f 136/369/136 26/368/26 135/367/135
f 24/370/24 26/368/26 136/369/136
f 137/371/137 24/370/24 136/369/136
f 14/372/14 24/370/24 137/371/137
f 138/373/138 14/372/14 137/371/137
f 15/374/15 14/372/14 138/373/138
f 139/375/139 15/374/15 138/373/138
f 17/376/17 15/374/15 139/375/139
f 140/377/140 17/376/17 139/375/139
f 19/378/19 17/376/17 140/377/140
f 141/361/141 19/378/19 140/377/140
f 21/360/21 19/378/19 141/361/141
