# Blender v2.93.5 OBJ File: ''
# www.blender.org
mtllib Paint.mtl
o Easel_&_Paint_Painting.001
v -0.318091 0.007534 0.121494
v -0.298579 -0.015197 0.125205
v -0.299161 -0.011807 0.136682
v -0.318672 0.010923 0.132970
v -0.310812 0.005078 0.152628
v -0.297276 0.001580 0.099264
v -0.331028 0.205030 0.078327
v -0.330458 0.201791 0.067054
v -0.341186 0.478159 0.006157
v -0.340631 0.475129 -0.004831
v -0.351469 0.649831 -0.041751
v -0.343878 0.668266 -0.021571
v -0.333521 0.490048 0.026197
v -0.350925 0.646933 -0.052558
v -0.330900 0.669649 -0.059451
v -0.331432 0.672748 -0.048960
v -0.330099 0.640629 -0.074964
v -0.323250 0.206596 0.098145
v -0.167084 0.668151 -0.073482
v -0.166233 0.639154 -0.088920
v 0.065809 0.666020 -0.093429
v 0.066731 0.637055 -0.108762
v 0.065383 0.669271 -0.082429
v -0.167572 0.671312 -0.062780
v 0.067584 0.664532 -0.056608
v -0.173969 0.666723 -0.036039
v 0.077953 0.486329 -0.008845
v -0.163608 0.488512 0.011726
v 0.088244 0.202901 0.063095
v -0.153328 0.205071 0.083671
v 0.100697 0.001400 0.117574
v -0.140884 0.003560 0.138153
v 0.097688 -0.015478 0.102556
v -0.135287 -0.013323 0.122590
v 0.098235 -0.018674 0.091736
v -0.134720 -0.016633 0.111384
v 0.099529 -0.001968 0.065462
v -0.133420 0.000115 0.085306
v 0.297416 -0.003737 0.048606
v 0.296127 -0.020407 0.075045
v 0.316164 0.002509 0.067836
v 0.315632 0.005608 0.078328
v 0.295595 -0.017308 0.085537
v 0.305916 -0.000435 0.100093
v 0.303261 0.199803 0.023985
v 0.293457 0.201059 0.045616
v 0.293083 0.473055 -0.047766
v 0.283156 0.484474 -0.026321
v 0.282785 0.644807 -0.095409
v 0.272780 0.662670 -0.074081
v 0.283354 0.641223 -0.106581
v 0.263273 0.667537 -0.099120
v 0.263648 0.664209 -0.110374
v 0.293641 0.469602 -0.058755
v 0.264629 0.635274 -0.125617
v 0.274910 0.463574 -0.077844
v 0.303804 0.196556 0.013286
v -0.319808 0.468919 -0.027189
v -0.340631 0.475129 -0.004831
v -0.350925 0.646933 -0.052558
v -0.330099 0.640629 -0.074964
v -0.309640 0.195730 0.044770
v -0.330458 0.201791 0.067054
v -0.297276 0.001580 0.099264
v -0.318091 0.007534 0.121494
v 0.303804 0.196556 0.013286
v 0.285063 0.190401 -0.005886
v 0.274910 0.463574 -0.077844
v 0.293641 0.469602 -0.058755
v 0.316164 0.002509 0.067836
v 0.297416 -0.003737 0.048606
vt 0.917200 0.978839
vt 0.936501 0.976998
vt 0.937476 0.982180
vt 0.918176 0.984020
vt 0.929339 0.991216
vt 0.935491 0.692035
vt 0.955924 0.695597
vt 0.944893 0.717216
vt 0.703372 0.982110
vt 0.702322 0.977030
vt 0.400937 0.981018
vt 0.399784 0.976080
vt 0.210943 0.979471
vt 0.197634 0.989437
vt 0.394225 0.990238
vt 0.209726 0.974623
vt 0.178635 0.973073
vt 0.179527 0.977809
vt 0.202213 0.963515
vt 0.707066 0.990152
vt 0.130933 0.958522
vt 0.154502 0.948994
vt 0.063118 0.937834
vt 0.086674 0.928350
vt 0.064015 0.942794
vt 0.131828 0.963350
vt 0.383500 0.041614
vt 0.383125 0.027476
vt 0.676197 0.018554
vt 0.687410 0.032335
vt 0.882344 0.012278
vt 0.901181 0.025806
vt 0.898373 0.257552
vt 0.380676 0.273340
vt 0.684596 0.264072
vt 0.901181 0.624509
vt 0.383458 0.640267
vt 0.687393 0.631015
vt 0.379410 0.902481
vt 0.683357 0.893241
vt 0.381854 0.917945
vt 0.674993 0.909008
vt 0.954578 0.249140
vt 0.959434 0.250683
vt 0.960398 0.512838
vt 0.955368 0.511239
vt 0.933985 0.245560
vt 0.934869 0.507668
vt 0.897153 0.886744
vt 0.881186 0.902722
vt 0.961075 0.697236
vt 0.933234 0.022902
vt 0.953906 0.026491
vt 0.942460 0.003602
vt 0.947169 0.005101
vt 0.958615 0.027989
vt 0.961075 0.017771
vt 0.106397 0.896565
vt 0.110546 0.643249
vt 0.121212 0.910330
vt 0.125268 0.648125
vt 0.107906 0.288714
vt 0.122499 0.281214
vt 0.110821 0.064844
vt 0.125333 0.049497
vt 0.108903 0.065634
vt 0.134167 0.035055
vt 0.132476 0.035498
vt 0.106020 0.289405
vt 0.979132 0.894961
vt 0.980493 0.744929
vt 0.989880 0.911857
vt 0.991242 0.915323
vt 0.991242 0.761828
vt 0.108707 0.643782
vt 0.104593 0.896984
vt 0.132838 0.925536
vt 0.006410 0.925331
vt 0.005510 0.920260
vt 0.029054 0.910814
vt 0.963974 0.530548
vt 0.980899 0.526235
vt 0.980218 0.718073
vt 0.963246 0.722299
vt 0.963030 0.224896
vt 0.979882 0.220445
vt 0.964099 0.008153
vt 0.980899 0.003602
vt 0.993892 0.254165
vt 0.982854 0.237800
vt 0.984695 0.003602
vt 0.995731 0.019965
vt 0.995731 0.424333
vt 0.984691 0.407968
vn -0.8468 -0.1346 -0.5147
vn -0.0817 -0.9531 -0.2915
vn -0.0566 -0.8079 0.5866
vn -0.9684 0.0519 0.2439
vn -0.0405 0.1826 0.9824
vn -0.4719 -0.5429 -0.6947
vn -0.9720 0.0607 0.2272
vn -0.8120 -0.1219 -0.5707
vn -0.9746 0.0582 0.2162
vn -0.8102 -0.1217 -0.5733
vn -0.9802 0.0595 0.1888
vn -0.0476 0.3585 0.9323
vn -0.0947 0.2165 0.9717
vn -0.8318 -0.1396 -0.5373
vn -0.0983 0.6489 -0.7545
vn -0.0839 0.9957 0.0402
vn -0.4607 0.1507 -0.8747
vn -0.0836 0.2199 0.9719
vn -0.0547 0.6402 -0.7663
vn -0.0710 0.4670 -0.8814
vn -0.0561 0.6418 -0.7648
vn -0.0711 0.4648 -0.8826
vn -0.0003 0.9994 0.0340
vn 0.0119 0.9993 0.0353
vn 0.0044 0.3507 0.9365
vn 0.0826 0.3455 0.9348
vn 0.0829 0.2201 0.9719
vn 0.0847 0.2200 0.9718
vn 0.0831 0.2199 0.9720
vn 0.0847 0.2199 0.9718
vn 0.1091 0.1686 0.9796
vn 0.0852 0.1702 0.9817
vn 0.0343 -0.7952 0.6054
vn 0.0445 -0.7950 0.6049
vn -0.0083 -0.9462 -0.3236
vn -0.0356 -0.9463 -0.3214
vn -0.0531 -0.8414 -0.5378
vn -0.0533 -0.8393 -0.5411
vn 0.3940 -0.5966 -0.6991
vn 0.0449 -0.9576 -0.2847
vn 0.8696 -0.1397 -0.4736
vn 0.9489 0.0658 0.3085
vn 0.0785 -0.7896 0.6086
vn 0.0794 0.1514 0.9853
vn 0.9520 0.0566 0.3009
vn 0.1370 0.2169 0.9665
vn 0.9540 0.0562 0.2946
vn 0.1385 0.2159 0.9665
vn 0.9604 0.0863 0.2648
vn 0.1103 0.3209 0.9407
vn 0.8647 -0.0951 -0.4933
vn 0.0852 0.9940 0.0684
vn 0.0617 0.6443 -0.7623
vn 0.8563 -0.1502 -0.4942
vn 0.3626 0.2195 -0.9057
vn 0.7293 -0.1607 -0.6651
vn 0.8601 -0.1217 -0.4954
vn -0.7436 -0.1423 -0.6533
vn -0.8656 -0.1023 -0.4902
vn -0.8679 -0.0401 -0.4951
vn -0.4265 0.2469 -0.8701
vn -0.7428 -0.1422 -0.6543
vn -0.8664 -0.1019 -0.4889
vn -0.4800 -0.5598 -0.6754
vn -0.8725 -0.1454 -0.4665
vn 0.8522 -0.1262 -0.5078
vn 0.7300 -0.1602 -0.6645
vn 0.7290 -0.1604 -0.6655
vn 0.8536 -0.1199 -0.5069
vn 0.8568 -0.1674 -0.4877
vn 0.4111 -0.6252 -0.6634
usemtl Easel_&_Paint_Painting.001
s 1
f 1/1/1 2/2/2 3/3/3
f 4/4/4 1/1/1 3/3/3
f 5/5/5 4/4/4 3/3/3
f 6/6/6 2/7/2 1/8/1
f 4/4/4 7/9/7 1/1/1
f 7/9/7 8/10/8 1/1/1
f 7/9/7 9/11/9 8/10/8
f 9/11/9 10/12/10 8/10/8
f 9/11/9 11/13/11 10/12/10
f 12/14/12 11/13/11 9/11/9
f 13/15/13 12/14/12 9/11/9
f 13/15/13 9/11/9 7/9/7
f 11/13/11 14/16/14 10/12/10
f 15/17/15 14/16/14 11/13/11
f 16/18/16 15/17/15 11/13/11
f 12/14/12 16/18/16 11/13/11
f 15/17/15 17/19/17 14/16/14
f 18/20/18 13/15/13 7/9/7
f 18/20/18 7/9/7 4/4/4
f 5/5/5 18/20/18 4/4/4
f 15/17/15 19/21/19 17/19/17
f 19/21/19 15/17/15 16/18/16
f 19/21/19 20/22/20 17/19/17
f 19/21/19 21/23/21 20/22/20
f 21/23/21 22/24/22 20/22/20
f 23/25/23 21/23/21 19/21/19
f 24/26/24 23/25/23 19/21/19
f 24/26/24 19/21/19 16/18/16
f 25/27/25 23/28/23 24/29/24
f 26/30/26 25/27/25 24/29/24
f 26/30/26 24/29/24 16/31/16
f 12/32/12 26/30/26 16/31/16
f 26/30/26 12/32/12 13/33/13
f 27/34/27 25/27/25 26/30/26
f 28/35/28 27/34/27 26/30/26
f 28/35/28 26/30/26 13/33/13
f 28/35/28 13/33/13 18/36/18
f 29/37/29 27/34/27 28/35/28
f 30/38/30 29/37/29 28/35/28
f 30/38/30 28/35/28 18/36/18
f 31/39/31 29/37/29 30/38/30
f 32/40/32 31/39/31 30/38/30
f 33/41/33 31/39/31 32/40/32
f 34/42/34 33/41/33 32/40/32
f 35/43/35 33/44/33 34/45/34
f 36/46/36 35/43/35 34/45/34
f 37/47/37 35/43/35 36/46/36
f 38/48/38 37/47/37 36/46/36
f 32/40/32 30/38/30 5/49/5
f 34/42/34 32/40/32 5/49/5
f 30/38/30 18/36/18 5/49/5
f 3/50/3 34/42/34 5/49/5
f 34/45/34 3/51/3 2/7/2
f 36/46/36 34/45/34 2/7/2
f 38/48/38 36/46/36 2/7/2
f 6/6/6 38/48/38 2/7/2
f 37/47/37 39/52/39 35/43/35
f 39/52/39 40/53/40 35/43/35
f 35/43/35 40/53/40 33/44/33
f 39/52/39 41/54/41 40/53/40
f 40/53/40 41/54/41 42/55/42
f 43/56/43 40/53/40 42/55/42
f 40/53/40 43/56/43 33/44/33
f 44/57/44 43/56/43 42/55/42
f 42/58/42 45/59/45 44/60/44
f 45/59/45 46/61/46 44/60/44
f 45/59/45 47/62/47 46/61/46
f 47/62/47 48/63/48 46/61/46
f 47/62/47 49/64/49 48/63/48
f 49/64/49 50/65/50 48/63/48
f 51/66/51 49/64/49 47/62/47
f 49/64/49 51/66/51 52/67/52
f 50/65/50 49/64/49 52/67/52
f 51/66/51 53/68/53 52/67/52
f 54/69/54 51/66/51 47/62/47
f 54/69/54 47/62/47 45/59/45
f 51/70/51 54/71/54 55/72/55
f 53/73/53 51/70/51 55/72/55
f 54/71/54 56/74/56 55/72/55
f 57/75/57 54/69/54 45/59/45
f 57/75/57 45/59/45 42/58/42
f 41/76/41 57/75/57 42/58/42
f 43/77/43 44/60/44 31/39/31
f 33/41/33 43/77/43 31/39/31
f 46/61/46 48/63/48 27/34/27
f 29/37/29 46/61/46 27/34/27
f 44/60/44 46/61/46 29/37/29
f 31/39/31 44/60/44 29/37/29
f 50/65/50 52/67/52 23/28/23
f 25/27/25 50/65/50 23/28/23
f 48/63/48 50/65/50 25/27/25
f 27/34/27 48/63/48 25/27/25
f 23/25/23 52/78/52 21/23/21
f 52/78/52 53/79/53 21/23/21
f 21/23/21 53/79/53 22/24/22
f 53/79/53 55/80/55 22/24/22
f 58/81/58 59/82/59 60/83/60
f 61/84/61 58/81/58 60/83/60
f 58/81/58 62/85/62 59/82/59
f 62/85/62 63/86/63 59/82/59
f 62/85/62 64/87/64 63/86/63
f 64/87/64 65/88/65 63/86/63
f 66/89/66 67/90/67 68/91/68
f 69/92/69 66/89/66 68/91/68
f 66/89/66 70/93/70 67/90/67
f 70/93/70 71/94/71 67/90/67
